<?xml version="1.0" standalone="no"?>
<!DOCTYPE svg PUBLIC "-//W3C//DTD SVG 20010904//EN"
 "http://www.w3.org/TR/2001/REC-SVG-20010904/DTD/svg10.dtd">
<svg version="1.0" xmlns="http://www.w3.org/2000/svg"
 width="1628.000000pt" height="304.000000pt" viewBox="0 0 1628.000000 304.000000"
 preserveAspectRatio="xMidYMid meet">

<g transform="translate(0.000000,304.000000) scale(0.100000,-0.100000)"
fill="#000000" stroke="none">
<path d="M970 1805 l0 -515 60 0 60 0 1 403 c0 279 3 397 10 387 6 -8 86 -188
178 -400 l167 -385 59 0 59 0 167 385 c92 212 172 392 178 400 7 10 10 -108
10 -387 l1 -403 60 0 60 0 0 515 0 515 -78 0 -77 0 -190 -435 c-104 -240 -192
-430 -195 -423 -4 7 -90 203 -191 436 l-183 422 -78 0 -78 0 0 -515z"/>
<path d="M2531 2298 c-5 -13 -93 -237 -196 -498 -103 -261 -190 -483 -193
-493 -4 -16 2 -18 63 -15 l67 3 53 140 53 140 233 3 234 2 55 -145 55 -145 68
0 c38 0 67 4 65 9 -1 5 -93 236 -202 515 l-200 506 -73 0 c-67 0 -74 -2 -82
-22z m183 -372 c47 -126 86 -233 86 -238 0 -4 -85 -8 -190 -8 -104 0 -190 2
-190 4 0 2 39 104 86 227 48 123 91 235 96 249 12 33 10 39 112 -234z"/>
<path d="M3110 2270 l0 -50 180 0 180 0 2 -462 3 -463 63 -3 62 -3 0 466 0
465 180 0 180 0 0 50 0 50 -425 0 -425 0 0 -50z"/>
<path d="M4080 1805 l0 -515 60 0 60 0 2 238 3 237 268 3 267 2 0 55 0 55
-270 0 -270 0 2 168 3 167 288 3 288 2 -3 48 -3 47 -347 3 -348 2 0 -515z"/>
<path d="M4970 1436 c0 -123 2 -146 15 -146 12 0 15 19 15 107 0 62 4 103 9
98 5 -6 28 -54 51 -108 30 -68 47 -97 58 -95 8 2 35 50 61 108 l46 105 3 -107
c2 -87 6 -108 17 -108 13 0 15 24 15 145 0 134 -1 145 -18 145 -14 0 -31 -28
-67 -112 -27 -62 -51 -116 -55 -121 -3 -4 -29 46 -57 110 -40 92 -56 119 -72
121 -21 3 -21 0 -21 -142z"/>
<path d="M5680 1435 c0 -122 2 -145 15 -145 12 0 15 15 15 75 0 62 4 79 20 95
24 24 39 25 65 6 16 -12 20 -29 23 -95 3 -61 8 -81 18 -81 11 0 14 17 14 69 0
71 -12 120 -33 133 -19 12 -82 9 -95 -4 -9 -9 -12 0 -12 40 0 40 -4 52 -15 52
-13 0 -15 -23 -15 -145z"/>
<path d="M6824 1566 c-7 -19 3 -36 22 -36 10 0 14 8 12 22 -4 26 -26 36 -34
14z"/>
<path d="M7360 1435 c0 -122 2 -145 15 -145 13 0 15 23 15 145 0 122 -2 145
-15 145 -13 0 -15 -23 -15 -145z"/>
<path d="M7640 1448 c-28 -73 -54 -139 -57 -145 -3 -8 3 -13 14 -13 14 0 24
12 33 40 l13 40 67 0 67 0 16 -40 c9 -24 22 -40 32 -40 20 0 20 -2 -44 163
-67 168 -72 168 -141 -5z m99 26 c11 -31 21 -60 21 -65 0 -5 -23 -9 -51 -9
-37 0 -50 4 -46 13 2 6 13 36 23 65 10 28 22 52 25 52 3 0 16 -25 28 -56z"/>
<path d="M9600 1565 c0 -11 12 -15 50 -15 l50 0 0 -130 c0 -109 2 -130 15
-130 13 0 15 21 15 130 l0 130 50 0 c38 0 50 4 50 15 0 12 -19 15 -115 15 -96
0 -115 -3 -115 -15z"/>
<path d="M10290 1435 c0 -122 2 -145 15 -145 11 0 15 11 15 39 0 22 6 44 15
51 13 10 19 8 38 -16 49 -63 64 -76 80 -73 14 3 9 14 -28 59 -24 30 -44 59
-45 64 0 4 19 26 43 47 40 36 41 38 17 39 -16 0 -41 -16 -72 -47 l-48 -47 0
87 c0 71 -3 87 -15 87 -13 0 -15 -23 -15 -145z"/>
<path d="M10740 1435 c0 -120 2 -145 15 -145 11 0 15 16 17 68 l3 67 73 3 c39
2 72 7 72 12 0 5 -33 10 -72 12 l-73 3 -3 48 -3 47 80 0 c65 0 81 3 81 15 0
12 -17 15 -95 15 l-95 0 0 -145z"/>
<path d="M5560 1530 c0 -23 -4 -30 -20 -30 -11 0 -20 -7 -20 -15 0 -8 9 -15
20 -15 18 0 20 -7 20 -80 0 -85 9 -100 59 -100 28 0 27 28 -1 32 -21 3 -23 9
-26 76 -3 71 -3 72 23 72 16 0 25 6 25 15 0 9 -9 15 -25 15 -21 0 -25 5 -25
30 0 20 -5 30 -15 30 -10 0 -15 -10 -15 -30z"/>
<path d="M6700 1530 c0 -23 -4 -30 -20 -30 -11 0 -20 -7 -20 -15 0 -8 9 -15
20 -15 18 0 20 -7 20 -80 0 -85 9 -100 59 -100 28 0 27 28 -1 32 -21 3 -23 9
-26 76 -3 71 -3 72 23 72 16 0 25 6 25 15 0 9 -9 15 -25 15 -21 0 -25 5 -25
30 0 20 -5 30 -15 30 -10 0 -15 -10 -15 -30z"/>
<path d="M5332 1473 c-23 -23 -24 -28 -10 -31 9 -2 26 6 37 17 26 26 55 27 81
1 35 -35 20 -50 -49 -50 -52 0 -81 -23 -81 -65 0 -24 6 -38 19 -45 29 -15 83
-12 109 6 20 14 22 14 22 0 0 -9 7 -16 16 -16 14 0 15 13 12 91 -4 105 -14
119 -85 119 -34 0 -50 -6 -71 -27z m128 -88 c0 -2 -5 -15 -11 -29 -15 -33 -60
-52 -88 -36 -45 24 -9 70 56 70 23 0 43 -2 43 -5z"/>
<path d="M5923 1485 c-48 -34 -49 -146 0 -180 45 -32 147 -4 147 41 0 19 -26
18 -34 -1 -9 -24 -53 -37 -79 -24 -27 14 -37 28 -37 52 0 15 10 17 81 17 l81
0 -6 28 c-13 52 -39 77 -87 80 -28 2 -52 -3 -66 -13z m95 -21 c12 -8 22 -24
22 -35 0 -17 -7 -19 -60 -19 -59 0 -71 8 -52 36 9 13 43 33 57 34 6 0 21 -7
33 -16z"/>
<path d="M6120 1395 c0 -87 3 -105 15 -105 12 0 15 16 15 80 0 73 2 81 24 95
50 33 76 -8 76 -121 0 -41 4 -54 15 -54 12 0 15 15 15 78 0 66 3 82 20 97 16
15 25 16 44 7 26 -12 36 -46 36 -128 0 -41 4 -54 15 -54 12 0 15 14 15 69 0
71 -12 120 -33 133 -20 13 -75 9 -90 -7 -13 -13 -16 -13 -27 0 -15 18 -81 20
-98 3 -9 -9 -12 -9 -12 0 0 7 -7 12 -15 12 -12 0 -15 -18 -15 -105z"/>
<path d="M6472 1473 c-23 -23 -24 -28 -10 -31 9 -2 26 6 37 17 26 26 55 27 81
1 35 -35 20 -50 -49 -50 -52 0 -81 -23 -81 -65 0 -24 6 -38 19 -45 29 -15 83
-12 109 6 20 14 22 14 22 0 0 -9 7 -16 16 -16 14 0 15 13 12 91 -4 105 -14
119 -85 119 -34 0 -50 -6 -71 -27z m128 -88 c0 -2 -5 -15 -11 -29 -15 -33 -60
-52 -88 -36 -45 24 -9 70 56 70 23 0 43 -2 43 -5z"/>
<path d="M6830 1395 c0 -87 3 -105 15 -105 12 0 15 18 15 105 0 87 -3 105 -15
105 -12 0 -15 -18 -15 -105z"/>
<path d="M6952 1493 c-20 -8 -42 -59 -42 -98 0 -68 33 -104 96 -105 30 0 46 6
62 23 25 27 29 57 7 57 -8 0 -15 -6 -15 -14 0 -20 -27 -38 -57 -38 -60 0 -85
91 -38 137 31 32 50 31 81 0 28 -28 44 -32 44 -10 0 30 -38 55 -82 54 -24 0
-49 -3 -56 -6z"/>
<path d="M7152 1473 c-23 -23 -24 -28 -10 -31 9 -2 26 6 37 17 26 26 55 27 81
1 35 -35 20 -50 -49 -50 -52 0 -81 -23 -81 -65 0 -24 6 -38 19 -45 29 -15 83
-12 109 6 20 14 22 14 22 0 0 -9 7 -16 16 -16 14 0 15 13 12 91 -4 105 -14
119 -85 119 -34 0 -50 -6 -71 -27z m128 -88 c0 -2 -5 -15 -11 -29 -15 -33 -60
-52 -88 -36 -45 24 -9 70 56 70 23 0 43 -2 43 -5z"/>
<path d="M7885 1474 c-36 -39 -35 -111 1 -148 31 -31 87 -35 116 -9 17 15 18
15 18 -15 0 -58 -55 -87 -101 -53 -47 35 -69 21 -29 -19 30 -30 103 -28 135 5
24 23 25 30 25 145 0 97 -3 120 -14 120 -8 0 -16 -6 -19 -12 -4 -10 -7 -10
-18 0 -7 6 -30 12 -51 12 -29 0 -45 -7 -63 -26z m110 -19 c30 -29 33 -73 7
-105 -39 -48 -112 -14 -112 52 0 32 38 78 65 78 9 0 27 -11 40 -25z"/>
<path d="M8110 1395 c0 -87 3 -105 15 -105 12 0 15 15 15 73 0 80 15 107 58
107 13 0 22 6 22 15 0 18 -50 21 -68 3 -9 -9 -12 -9 -12 0 0 7 -7 12 -15 12
-12 0 -15 -18 -15 -105z"/>
<path d="M8292 1493 c-21 -8 -42 -59 -42 -102 0 -59 39 -101 94 -101 23 0 51
7 63 15 49 34 49 146 0 180 -20 14 -87 19 -115 8z m92 -34 c33 -26 37 -96 6
-124 -70 -63 -153 53 -85 120 29 30 45 31 79 4z"/>
<path d="M8490 1395 c0 -87 3 -105 15 -105 12 0 15 15 15 75 0 62 4 79 20 95
24 24 39 25 65 6 16 -12 20 -29 23 -95 3 -61 8 -81 18 -81 11 0 14 18 14 76 0
72 -10 111 -34 126 -18 12 -81 9 -94 -4 -9 -9 -12 -9 -12 0 0 7 -7 12 -15 12
-12 0 -15 -18 -15 -105z"/>
<path d="M8742 1493 c-21 -8 -42 -59 -42 -102 0 -59 39 -101 94 -101 23 0 51
7 63 15 49 34 49 146 0 180 -20 14 -87 19 -115 8z m92 -34 c33 -26 37 -96 6
-124 -70 -63 -153 53 -85 120 29 30 45 31 79 4z"/>
<path d="M8940 1395 c0 -87 3 -105 15 -105 12 0 15 16 15 80 0 73 2 81 24 95
50 33 76 -8 76 -121 0 -41 4 -54 15 -54 12 0 15 15 15 78 0 66 3 82 20 97 16
15 25 16 44 7 26 -12 36 -46 36 -128 0 -41 4 -54 15 -54 12 0 15 14 15 69 0
71 -12 120 -33 133 -20 13 -75 9 -90 -7 -13 -13 -16 -13 -27 0 -15 18 -81 20
-98 3 -9 -9 -12 -9 -12 0 0 7 -7 12 -15 12 -12 0 -15 -18 -15 -105z"/>
<path d="M9292 1400 c41 -101 41 -101 24 -142 -17 -44 -15 -54 6 -45 12 4 118
254 118 277 0 6 -6 10 -14 10 -9 0 -26 -29 -43 -75 -15 -41 -30 -75 -33 -75
-3 0 -18 34 -34 75 -21 55 -33 75 -47 75 -15 0 -13 -12 23 -100z"/>
<path d="M9882 1473 c-23 -23 -24 -28 -10 -31 9 -2 26 6 37 17 26 26 55 27 81
1 35 -35 20 -50 -49 -50 -52 0 -81 -23 -81 -65 0 -24 6 -38 19 -45 29 -15 83
-12 109 6 20 14 22 14 22 0 0 -9 7 -16 16 -16 14 0 15 13 12 91 -4 105 -14
119 -85 119 -34 0 -50 -6 -71 -27z m128 -88 c0 -2 -5 -15 -11 -29 -15 -33 -60
-52 -88 -36 -45 24 -9 70 56 70 23 0 43 -2 43 -5z"/>
<path d="M10096 1484 c-19 -19 -21 -58 -3 -72 7 -6 34 -16 60 -23 60 -15 78
-41 43 -64 -29 -20 -76 -10 -83 16 -3 11 -13 19 -23 19 -13 0 -17 -5 -13 -20
8 -31 43 -50 90 -50 47 0 83 26 83 59 0 25 -41 57 -84 65 -19 4 -40 14 -47 22
-11 14 -10 18 6 30 26 19 52 17 75 -6 23 -23 40 -26 40 -7 0 43 -109 66 -144
31z"/>
<path d="M11002 1493 c-21 -8 -42 -59 -42 -102 0 -59 39 -101 94 -101 23 0 51
7 63 15 49 34 49 146 0 180 -20 14 -87 19 -115 8z m92 -34 c33 -26 37 -96 6
-124 -70 -63 -153 53 -85 120 29 30 45 31 79 4z"/>
<path d="M11200 1395 c0 -87 3 -105 15 -105 12 0 15 15 15 73 0 80 15 107 58
107 13 0 22 6 22 15 0 18 -50 21 -68 3 -9 -9 -12 -9 -12 0 0 7 -7 12 -15 12
-12 0 -15 -18 -15 -105z"/>
<path d="M11382 1493 c-20 -8 -42 -59 -42 -98 0 -68 33 -104 96 -105 30 0 46
6 62 23 25 27 29 57 7 57 -8 0 -15 -6 -15 -14 0 -20 -27 -38 -57 -38 -60 0
-85 91 -38 137 31 32 50 31 81 0 28 -28 44 -32 44 -10 0 30 -38 55 -82 54 -24
0 -49 -3 -56 -6z"/>
<path d="M11593 1485 c-48 -34 -49 -146 0 -180 45 -32 147 -4 147 41 0 19 -26
18 -34 -1 -9 -24 -53 -37 -79 -24 -27 14 -37 28 -37 52 0 15 10 17 81 17 l81
0 -6 28 c-13 52 -39 77 -87 80 -28 2 -52 -3 -66 -13z m95 -21 c12 -8 22 -24
22 -35 0 -17 -7 -19 -60 -19 -59 0 -71 8 -52 36 9 13 43 33 57 34 6 0 21 -7
33 -16z"/>
<path d="M10490 1395 c0 -12 18 -15 100 -15 82 0 100 3 100 15 0 12 -18 15
-100 15 -82 0 -100 -3 -100 -15z"/>
</g>
</svg>
